<?xml version="1.0" encoding="UTF-8" standalone="no"?>
<!-- Created with Inkscape (http://www.inkscape.org/) -->

<svg
   version="1.1"
   id="svg2"
   xml:space="preserve"
   width="1000"
   height="600"
   viewBox="0 0 1000 600"
   sodipodi:docname="phisica.svg"
   inkscape:version="1.1.2 (0a00cf5339, 2022-02-04)"
   xmlns:inkscape="http://www.inkscape.org/namespaces/inkscape"
   xmlns:sodipodi="http://sodipodi.sourceforge.net/DTD/sodipodi-0.dtd"
   xmlns="http://www.w3.org/2000/svg"
   xmlns:svg="http://www.w3.org/2000/svg"><defs
     id="defs6"><clipPath
       clipPathUnits="userSpaceOnUse"
       id="clipPath18"><path
         d="m 343.996,0 h 278 v 397.703 h -278 z"
         id="path16" /></clipPath><clipPath
       clipPathUnits="userSpaceOnUse"
       id="clipPath28"><path
         d="M 0,0 H 806 V 399 H 0 Z"
         id="path26" /></clipPath><clipPath
       clipPathUnits="userSpaceOnUse"
       id="clipPath40"><path
         d="m 235.996,277 h 386 v 120.703 h -386 z"
         id="path38" /></clipPath><clipPath
       clipPathUnits="userSpaceOnUse"
       id="clipPath50"><path
         d="M 0,0 H 806 V 399 H 0 Z"
         id="path48" /></clipPath><clipPath
       clipPathUnits="userSpaceOnUse"
       id="clipPath62"><path
         d="m 235.996,0 h 205 v 397.602 h -205 z"
         id="path60" /></clipPath><clipPath
       clipPathUnits="userSpaceOnUse"
       id="clipPath72"><path
         d="M 0,0 H 806 V 399 H 0 Z"
         id="path70" /></clipPath><clipPath
       clipPathUnits="userSpaceOnUse"
       id="clipPath84"><path
         d="m 235.996,277 h 133 v 120.703 h -133 z"
         id="path82" /></clipPath><clipPath
       clipPathUnits="userSpaceOnUse"
       id="clipPath94"><path
         d="M 0,0 H 806 V 399 H 0 Z"
         id="path92" /></clipPath><clipPath
       clipPathUnits="userSpaceOnUse"
       id="clipPath110"><path
         d="m 75.152,101.621 h 75.344 v 78.297 H 75.152 Z"
         id="path108" /></clipPath><clipPath
       clipPathUnits="userSpaceOnUse"
       id="clipPath120"><path
         d="M 0,0 H 806 V 399 H 0 Z"
         id="path118" /></clipPath><clipPath
       clipPathUnits="userSpaceOnUse"
       id="clipPath132"><path
         d="M 437.199,0 H 775.476 V 289.988 H 437.199 Z"
         id="path130" /></clipPath><clipPath
       clipPathUnits="userSpaceOnUse"
       id="clipPath142"><path
         d="M 0,0 H 806 V 399 H 0 Z"
         id="path140" /></clipPath><clipPath
       clipPathUnits="userSpaceOnUse"
       id="clipPath154"><path
         d="M 652.309,0 H 776.192 V 72.371 H 652.309 Z"
         id="path152" /></clipPath><clipPath
       clipPathUnits="userSpaceOnUse"
       id="clipPath164"><path
         d="M 0,0 H 806 V 399 H 0 Z"
         id="path162" /></clipPath><clipPath
       clipPathUnits="userSpaceOnUse"
       id="clipPath176"><path
         d="m 317.004,67.238 h 339.273 v 75.527 H 317.004 Z"
         id="path174" /></clipPath><clipPath
       clipPathUnits="userSpaceOnUse"
       id="clipPath186"><path
         d="M 0,0 H 806 V 399 H 0 Z"
         id="path184" /></clipPath><clipPath
       clipPathUnits="userSpaceOnUse"
       id="clipPath198"><path
         d="m 651.598,64.895 h 123.879 v 75.527 H 651.598 Z"
         id="path196" /></clipPath><clipPath
       clipPathUnits="userSpaceOnUse"
       id="clipPath208"><path
         d="M 0,0 H 806 V 399 H 0 Z"
         id="path206" /></clipPath><clipPath
       clipPathUnits="userSpaceOnUse"
       id="clipPath224"><path
         d="m 651.598,137.625 h 123.879 v 75.527 H 651.598 Z"
         id="path222" /></clipPath><clipPath
       clipPathUnits="userSpaceOnUse"
       id="clipPath234"><path
         d="M 0,0 H 806 V 399 H 0 Z"
         id="path232" /></clipPath><clipPath
       clipPathUnits="userSpaceOnUse"
       id="clipPath250"><path
         d="m 655.008,209.844 h 123.883 v 75.527 H 655.008 Z"
         id="path248" /></clipPath><clipPath
       clipPathUnits="userSpaceOnUse"
       id="clipPath260"><path
         d="M 0,0 H 806 V 399 H 0 Z"
         id="path258" /></clipPath></defs><sodipodi:namedview
     id="namedview4"
     pagecolor="#505050"
     bordercolor="#eeeeee"
     borderopacity="1"
     inkscape:pageshadow="0"
     inkscape:pageopacity="0"
     inkscape:pagecheckerboard="0"
     showgrid="false"
     inkscape:zoom="0.65791139"
     inkscape:cx="519.82684"
     inkscape:cy="328.31169"
     inkscape:window-width="1366"
     inkscape:window-height="700"
     inkscape:window-x="0"
     inkscape:window-y="0"
     inkscape:window-maximized="1"
     inkscape:current-layer="g8"
     fit-margin-top="0"
     fit-margin-left="0"
     fit-margin-right="0"
     fit-margin-bottom="0" /><g
     id="g8"
     inkscape:groupmode="layer"
     inkscape:label="phisica"
     transform="scale(1.3333333)"><g
       id="g10" /><g
       id="g12"
       transform="scale(0.93122589,1.1300741)"><g
         id="g14"
         clip-path="url(#clipPath18)"><g
           id="g20"><g
             id="g22"><g
               id="g24"
               clip-path="url(#clipPath28)"><g
                 id="g30"><path
                   d="M 621.035,337.75 344.242,397.703 440.168,0 Z"
                   style="fill:#b8e6e6;fill-opacity:1;fill-rule:nonzero;stroke:none"
                   id="path32" /></g></g></g></g></g></g><g
       id="g34"
       transform="scale(0.93122589,1.1300741)"><g
         id="g36"
         clip-path="url(#clipPath40)"><g
           id="g42"><g
             id="g44"><g
               id="g46"
               clip-path="url(#clipPath50)"><g
                 id="g52"><path
                   d="M 621.035,337.75 236.32,277.793 344.242,397.703 Z"
                   style="fill:#8fd4d7;fill-opacity:1;fill-rule:nonzero;stroke:none"
                   id="path54" /></g></g></g></g></g></g><g
       id="g56"
       transform="scale(0.93122589,1.1300741)"><g
         id="g58"
         clip-path="url(#clipPath62)"><g
           id="g64"><g
             id="g66"><g
               id="g68"
               clip-path="url(#clipPath72)"><g
                 id="g74"><path
                   d="M 344.242,397.703 C 236.32,277.793 236.32,277.793 236.32,277.793 L 440.168,0 344.242,397.703"
                   style="fill:#8fd4d7;fill-opacity:1;fill-rule:nonzero;stroke:none"
                   id="path76" /></g></g></g></g></g></g><g
       id="g78"
       transform="scale(0.93122589,1.1300741)"><g
         id="g80"
         clip-path="url(#clipPath84)"><g
           id="g86"><g
             id="g88"><g
               id="g90"
               clip-path="url(#clipPath94)"><g
                 id="g96"><path
                   d="m 236.32,277.789 107.922,119.91 23.969,-99.355 z"
                   style="fill:#73bfc5;fill-opacity:1;fill-rule:nonzero;stroke:none"
                   id="path98" /></g></g></g></g></g></g><g
       id="g100"
       transform="scale(0.93122589,1.1300741)"><path
         d="M 385.289,149.887 H 147.344 c -6.578,0 -9.914,-3.117 -9.914,-9.992 0,-6.872 3.336,-9.993 9.914,-9.993 h 237.945 c 6.574,0 9.914,3.121 9.914,9.993 0,6.875 -3.34,9.992 -9.914,9.992"
         style="fill:#f5de8c;fill-opacity:1;fill-rule:nonzero;stroke:none"
         id="path102" /></g><g
       id="g104"
       transform="scale(0.93122589,1.1300741)"><g
         id="g106"
         clip-path="url(#clipPath110)"><g
           id="g112"><g
             id="g114"><g
               id="g116"
               clip-path="url(#clipPath120)"><g
                 id="g122"><path
                   d="m 75.734,102.426 h 74.359 v 74.941 H 75.734 Z"
                   style="fill:#63a8b0;fill-opacity:1;fill-rule:nonzero;stroke:none"
                   id="path124" /></g></g></g></g></g></g><g
       id="g126"
       transform="scale(0.93122589,1.1300741)"><g
         id="g128"
         clip-path="url(#clipPath132)"><g
           id="g134"><g
             id="g136"><g
               id="g138"
               clip-path="url(#clipPath142)"><g
                 id="g144"><path
                   d="M 440.168,139.895 655.008,0 h 119.91 V 279.793 H 655.008 L 440.168,139.895"
                   style="fill:#ff2a2a;fill-opacity:1;fill-rule:nonzero;stroke:none"
                   id="path146" /></g></g></g></g></g></g><g
       id="g148"
       transform="scale(0.93122589,1.1300741)"><g
         id="g150"
         clip-path="url(#clipPath154)"><g
           id="g156"><g
             id="g158"><g
               id="g160"
               clip-path="url(#clipPath164)"><g
                 id="g166"><path
                   d="M 774.918,69.949 H 655.008 V 0 h 119.91 v 29.977"
                   style="fill:#ff5555;fill-opacity:1;fill-rule:nonzero;stroke:none"
                   id="path168" /></g></g></g></g></g></g><g
       id="g170"
       transform="scale(0.93122589,1.1300741)"><g
         id="g172"
         clip-path="url(#clipPath176)"><g
           id="g178"><g
             id="g180"><g
               id="g182"
               clip-path="url(#clipPath186)"><g
                 id="g188"><path
                   d="M 655.008,139.895 H 440.168 L 655.008,69.949"
                   style="fill:#ffd42a;fill-opacity:1;fill-rule:nonzero;stroke:none"
                   id="path190" /></g></g></g></g></g></g><g
       id="g192"
       transform="scale(0.93122589,1.1300741)"><g
         id="g194"
         clip-path="url(#clipPath198)"><g
           id="g200"><g
             id="g202"><g
               id="g204"
               clip-path="url(#clipPath208)"><g
                 id="g210"><path
                   d="M 774.918,139.895 H 655.008 V 69.949 h 119.91 v 39.969"
                   style="fill:#ffdd55;fill-opacity:1;fill-rule:nonzero;stroke:none"
                   id="path212" /></g></g></g></g></g></g><g
       id="g214"
       transform="scale(0.93122589,1.1300741)"><path
         d="m 655.008,209.844 -214.84,-69.949 214.84,139.898 z"
         style="fill:#5497d4;fill-opacity:1;fill-rule:nonzero;stroke:none"
         id="path216" /></g><g
       id="g218"
       transform="scale(0.93122589,1.1300741)"><g
         id="g220"
         clip-path="url(#clipPath224)"><g
           id="g226"><g
             id="g228"><g
               id="g230"
               clip-path="url(#clipPath234)"><g
                 id="g236"><path
                   d="m 774.918,209.844 h -119.91 v -69.949 h 119.91 v 39.972"
                   style="fill:#5fd35f;fill-opacity:1;fill-rule:nonzero;stroke:none"
                   id="path238" /></g></g></g></g></g></g><g
       id="g240"
       transform="scale(0.93122589,1.1300741)"><path
         d="m 655.008,139.895 v 69.949 l -214.84,-69.949 z"
         style="fill:#37c837;fill-opacity:1;fill-rule:nonzero;stroke:none"
         id="path242" /></g><g
       id="g244"
       transform="scale(0.93122589,1.1300741)"><g
         id="g246"
         clip-path="url(#clipPath250)"><g
           id="g252"><g
             id="g254"><g
               id="g256"
               clip-path="url(#clipPath260)"><g
                 id="g262"><path
                   d="m 774.918,279.793 h -119.91 v -69.949 h 119.91 v 39.969"
                   style="fill:#78bde8;fill-opacity:1;fill-rule:nonzero;stroke:none"
                   id="path264" /></g></g></g></g></g></g><g
       id="g266"
       transform="scale(0.93122589,1.1300741)"><g
         id="g268"><path
           d="m 669.996,9.992 v 5.996 h 4 v 35.973 l 7.992,7.996 h 21.985 l 6.996,-7.996 V 15.988 h 3.996 V 9.992 h -14.988 v 5.996 h 4.996 v 32.977 l -4.996,4.996 h -14.989 l -4.996,-4.996 V 15.988 h 4.996 V 9.992 Z"
           style="fill:#000000;fill-opacity:1;fill-rule:nonzero;stroke:#000000;stroke-width:0.999258;stroke-linecap:butt;stroke-linejoin:miter;stroke-miterlimit:4;stroke-dasharray:none;stroke-opacity:1"
           id="path270" /></g><g
         id="g272"><path
           d="m 719.961,9.992 v 5.996 h 4.996 v 37.973 h -4.996 v 5.996 h 33.973 l 7.996,-7.996 V 17.988 l -7.996,-7.996 z m 11.992,5.996 h 18.985 l 4.996,4.996 v 27.981 l -4.996,4.996 h -18.985 z"
           style="fill:#000000;fill-opacity:1;fill-rule:nonzero;stroke:#000000;stroke-width:0.999258;stroke-linecap:butt;stroke-linejoin:miter;stroke-miterlimit:4;stroke-dasharray:none;stroke-opacity:1"
           id="path274" /></g><path
         d="m 503.684,169.902 h 75.223 v 25.969 h -75.223 z"
         style="fill:#000000;fill-opacity:1;fill-rule:evenodd;stroke:none"
         id="path276" /><path
         d="m 503.684,169.906 -30.477,30.473 18.281,18.277 30.473,-30.472 z"
         style="fill:#000000;fill-opacity:1;fill-rule:evenodd;stroke:none"
         id="path278" /><path
         d="m 591.105,306.98 -30.476,30.477 18.277,18.277 30.477,-30.472 z"
         style="fill:#000000;fill-opacity:1;fill-rule:evenodd;stroke:none"
         id="path280" /><path
         d="m 491.484,306.98 30.477,30.477 -18.281,18.277 -30.473,-30.472 z"
         style="fill:#000000;fill-opacity:1;fill-rule:evenodd;stroke:none"
         id="path282" /><path
         d="m 578.91,169.902 30.473,30.477 -18.278,18.277 -30.476,-30.472 z"
         style="fill:#000000;fill-opacity:1;fill-rule:evenodd;stroke:none"
         id="path284" /><path
         d="m 503.684,329.77 h 75.223 v 25.965 h -75.223 z"
         style="fill:#000000;fill-opacity:1;fill-rule:evenodd;stroke:none"
         id="path286" /><path
         d="m 473.207,200.379 h 25.965 v 124.883 h -25.965 z"
         style="fill:#000000;fill-opacity:1;fill-rule:evenodd;stroke:none"
         id="path288" /><path
         d="m 583.418,289.48 h 25.969 v 35.781 h -25.969 z"
         style="fill:#000000;fill-opacity:1;fill-rule:evenodd;stroke:none"
         id="path290" /><path
         d="m 583.418,200.379 h 25.969 v 35.785 h -25.969 z"
         style="fill:#000000;fill-opacity:1;fill-rule:evenodd;stroke:none"
         id="path292" /><path
         d="m 639.676,334.797 63.285,-164.863 24.242,9.304 -63.285,164.864 z"
         style="fill:#000000;fill-opacity:1;fill-rule:evenodd;stroke:none"
         id="path294" /><path
         d="m 790.266,334.793 -63.293,-164.891 -24.266,9.313 63.297,164.89 z"
         style="fill:#000000;fill-opacity:1;fill-rule:evenodd;stroke:none"
         id="path296" /><path
         d="m 677.359,269.477 h 75.223 v 25.969 h -75.223 z"
         style="fill:#000000;fill-opacity:1;fill-rule:evenodd;stroke:none"
         id="path298" /><path
         d="m 744.367,334.395 h 61.023 v 21.34 h -61.023 z"
         style="fill:#000000;fill-opacity:1;fill-rule:evenodd;stroke:none"
         id="path300" /><path
         d="m 624.523,334.355 h 61.023 v 21.344 h -61.023 z"
         style="fill:#000000;fill-opacity:1;fill-rule:evenodd;stroke:none"
         id="path302" /><path
         d="m 684.457,169.902 h 61.027 v 21.34 h -61.027 z"
         style="fill:#000000;fill-opacity:1;fill-rule:evenodd;stroke:none"
         id="path304" /><path
         d="m 407.254,176.133 h 25.965 v 167.523 h -25.965 z"
         style="fill:#000000;fill-opacity:1;fill-rule:evenodd;stroke:none"
         id="path306" /><path
         d="m 382.406,169.941 h 75.66 v 21.34 h -75.66 z"
         style="fill:#000000;fill-opacity:1;fill-rule:evenodd;stroke:none"
         id="path308" /><path
         d="m 382.406,334.395 h 75.66 v 21.34 h -75.66 z"
         style="fill:#000000;fill-opacity:1;fill-rule:evenodd;stroke:none"
         id="path310" /><path
         d="m 271.438,249.84 h 65.352 v 25.969 h -65.352 z"
         style="fill:#000000;fill-opacity:1;fill-rule:evenodd;stroke:none"
         id="path312" /><path
         d="m 336.793,169.902 30.477,30.477 -18.282,18.277 -30.472,-30.472 z"
         style="fill:#000000;fill-opacity:1;fill-rule:evenodd;stroke:none"
         id="path314" /><path
         d="m 240.969,200.375 h 25.969 v 44.961 h -25.969 z"
         style="fill:#000000;fill-opacity:1;fill-rule:evenodd;stroke:none"
         id="path316" /><path
         d="m 271.441,169.902 -30.472,30.473 18.277,18.281 30.473,-30.476 z"
         style="fill:#000000;fill-opacity:1;fill-rule:evenodd;stroke:none"
         id="path318" /><path
         d="m 259.246,227.051 30.477,30.476 -18.282,18.278 -30.472,-30.473 z"
         style="fill:#000000;fill-opacity:1;fill-rule:evenodd;stroke:none"
         id="path320" /><path
         d="m 341.301,200.375 h 25.969 v 37.25 h -25.969 z"
         style="fill:#000000;fill-opacity:1;fill-rule:evenodd;stroke:none"
         id="path322" /><path
         d="m 241,288.02 h 25.969 v 37.25 H 241 Z"
         style="fill:#000000;fill-opacity:1;fill-rule:evenodd;stroke:none"
         id="path324" /><path
         d="m 341.301,280.32 h 25.969 v 44.938 h -25.969 z"
         style="fill:#000000;fill-opacity:1;fill-rule:evenodd;stroke:none"
         id="path326" /><path
         d="m 336.793,249.844 30.477,30.472 -18.282,18.282 -30.472,-30.477 z"
         style="fill:#000000;fill-opacity:1;fill-rule:evenodd;stroke:none"
         id="path328" /><path
         d="m 348.988,306.98 -30.476,30.477 18.281,18.277 30.473,-30.476 z"
         style="fill:#000000;fill-opacity:1;fill-rule:evenodd;stroke:none"
         id="path330" /><path
         d="m 271.438,169.902 h 65.352 v 25.969 h -65.352 z"
         style="fill:#000000;fill-opacity:1;fill-rule:evenodd;stroke:none"
         id="path332" /><path
         d="m 271.438,329.77 h 65.352 v 25.965 h -65.352 z"
         style="fill:#000000;fill-opacity:1;fill-rule:evenodd;stroke:none"
         id="path334" /><path
         d="m 259.254,306.98 30.473,30.477 -18.278,18.277 -30.476,-30.476 z"
         style="fill:#000000;fill-opacity:1;fill-rule:evenodd;stroke:none"
         id="path336" /><path
         d="m 56.457,129.902 h 112.914 v 25.969 H 56.457 Z"
         style="fill:#000000;fill-opacity:1;fill-rule:evenodd;stroke:none"
         id="path338" /><path
         d="m 56.457,329.77 h 112.914 v 25.965 H 56.457 Z"
         style="fill:#000000;fill-opacity:1;fill-rule:evenodd;stroke:none"
         id="path340" /><path
         d="m 199.859,186.363 h 25.969 v 112.914 h -25.969 z"
         style="fill:#000000;fill-opacity:1;fill-rule:evenodd;stroke:none"
         id="path342" /><path
         d="M 0,186.363 H 25.969 V 299.277 H 0 Z"
         style="fill:#000000;fill-opacity:1;fill-rule:evenodd;stroke:none"
         id="path344" /><path
         d="m 99.93,87.438 h 25.969 V 398.204 H 99.93 Z"
         style="fill:#000000;fill-opacity:1;fill-rule:evenodd;stroke:none"
         id="path346" /><path
         d="M 151.93,398.203 H 73.898 l 39.016,-39.047 z"
         style="fill:#000000;fill-opacity:1;fill-rule:evenodd;stroke:none"
         id="path348" /><path
         d="m 62.492,387.207 h 100.844 v 10.996 H 62.492 Z"
         style="fill:#000000;fill-opacity:1;fill-rule:evenodd;stroke:none"
         id="path350" /><path
         d="M 151.93,87.438 H 73.898 l 39.016,39.046 z"
         style="fill:#000000;fill-opacity:1;fill-rule:evenodd;stroke:none"
         id="path352" /><path
         d="M 62.492,87.438 H 163.336 V 98.434 H 62.492 Z"
         style="fill:#000000;fill-opacity:1;fill-rule:evenodd;stroke:none"
         id="path354" /><path
         d="m 169.371,129.906 56.457,56.457 -18.277,18.278 -56.457,-56.457 z"
         style="fill:#000000;fill-opacity:1;fill-rule:evenodd;stroke:none"
         id="path356" /><path
         d="M 169.371,355.734 225.828,299.277 207.551,281 151.094,337.453 Z"
         style="fill:#000000;fill-opacity:1;fill-rule:evenodd;stroke:none"
         id="path358" /><path
         d="M 56.457,129.906 0,186.363 18.277,204.641 74.734,148.184 Z"
         style="fill:#000000;fill-opacity:1;fill-rule:evenodd;stroke:none"
         id="path360" /><path
         d="M 56.457,355.734 0,299.277 18.277,281 74.734,337.453 Z"
         style="fill:#000000;fill-opacity:1;fill-rule:evenodd;stroke:none"
         id="path362" /></g></g></svg>
